<svg xmlns="http://www.w3.org/2000/svg" viewBox="0 0 512 512" width="512" height="512">
  <defs>
    <linearGradient id="bg" x1="0%" y1="0%" x2="100%" y2="100%">
      <stop offset="0%" style="stop-color:#3498db;stop-opacity:1" />
      <stop offset="100%" style="stop-color:#2980b9;stop-opacity:1" />
    </linearGradient>
    <linearGradient id="circle" x1="0%" y1="0%" x2="100%" y2="100%">
      <stop offset="0%" style="stop-color:#e74c3c;stop-opacity:1" />
      <stop offset="100%" style="stop-color:#c0392b;stop-opacity:1" />
    </linearGradient>
  </defs>
  
  <!-- 背景圆角矩形 -->
  <rect width="512" height="512" rx="80" ry="80" fill="url(#bg)"/>
  
  <!-- 番茄钟圆形 -->
  <circle cx="256" cy="220" r="120" fill="url(#circle)" stroke="white" stroke-width="8"/>
  
  <!-- 番茄叶子 -->
  <path d="M 240 110 Q 230 90 220 95 Q 215 100 225 110 Q 235 120 240 110 Z" fill="#27ae60"/>
  <path d="M 260 100 Q 280 85 285 95 Q 290 105 275 115 Q 260 125 260 100 Z" fill="#27ae60"/>
  
  <!-- 时钟指针 -->
  <line x1="256" y1="220" x2="256" y2="160" stroke="white" stroke-width="6" stroke-linecap="round"/>
  <line x1="256" y1="220" x2="300" y2="220" stroke="white" stroke-width="4" stroke-linecap="round"/>
  <circle cx="256" cy="220" r="8" fill="white"/>
  
  <!-- 日程图标 -->
  <rect x="80" y="350" width="80" height="80" rx="8" fill="white" opacity="0.9"/>
  <rect x="80" y="350" width="80" height="20" rx="8" fill="#34495e"/>
  <rect x="90" y="375" width="15" height="8" fill="#3498db"/>
  <rect x="110" y="375" width="35" height="8" fill="#ecf0f1"/>
  <rect x="90" y="390" width="25" height="8" fill="#3498db"/>
  <rect x="120" y="390" width="25" height="8" fill="#ecf0f1"/>
  <rect x="90" y="405" width="35" height="8" fill="#3498db"/>
  
  <!-- 甘特图图标 -->
  <rect x="350" y="350" width="80" height="80" rx="8" fill="white" opacity="0.9"/>
  <rect x="360" y="365" width="30" height="8" fill="#e74c3c"/>
  <rect x="360" y="380" width="45" height="8" fill="#27ae60"/>
  <rect x="360" y="395" width="25" height="8" fill="#f39c12"/>
  <rect x="360" y="410" width="40" height="8" fill="#9b59b6"/>
  
  <!-- 装饰线条 -->
  <circle cx="256" cy="380" r="3" fill="white" opacity="0.6"/>
  <circle cx="240" cy="395" r="2" fill="white" opacity="0.4"/>
  <circle cx="272" cy="395" r="2" fill="white" opacity="0.4"/>
</svg>